<svg width="1024" height="753" viewBox="0 0 1024 753" fill="none" xmlns="http://www.w3.org/2000/svg">
<g clip-path="url(#clip0_175_1901)">
<rect width="1024" height="753" fill="#121214"/>
<g opacity="0.2" filter="url(#filter0_f_175_1901)">
<ellipse cx="1108.5" cy="77" rx="670.5" ry="350" fill="#B3A659"/>
</g>
<path d="M629.035 313C630.53 313 631.662 313.63 632.431 314.891C633.213 316.138 633.605 317.953 633.605 320.336C633.605 322.719 633.213 324.541 632.431 325.802C631.662 327.063 630.53 327.693 629.035 327.693C627.554 327.693 626.422 327.063 625.639 325.802C624.856 324.541 624.465 322.719 624.465 320.336C624.465 317.967 624.856 316.152 625.639 314.891C626.422 313.63 627.554 313 629.035 313ZM625.953 320.336C625.953 322.026 626.107 323.35 626.415 324.306L631.068 315.099C630.579 314.448 629.901 314.122 629.035 314.122C628.071 314.122 627.316 314.635 626.771 315.66C626.226 316.672 625.953 318.23 625.953 320.336ZM629.035 326.55C630.013 326.55 630.775 326.044 631.32 325.033C631.865 324.008 632.137 322.442 632.137 320.336C632.137 318.549 631.963 317.163 631.613 316.18L626.96 325.469C627.463 326.19 628.154 326.55 629.035 326.55Z" fill="url(#paint0_linear_175_1901)" fill-opacity="0.6"/>
<path d="M630.293 350.135H633.374V351.236H625.387V350.135H628.951V338.455L625.555 340.471L624.968 339.536L629.161 336.959H630.293V350.135Z" fill="url(#paint1_linear_175_1901)" fill-opacity="0.6"/>
<path d="M629.035 360.502C630.53 360.502 631.662 361.133 632.431 362.393C633.213 363.64 633.605 365.455 633.605 367.838C633.605 370.221 633.213 372.043 632.431 373.304C631.662 374.565 630.53 375.195 629.035 375.195C627.554 375.195 626.422 374.565 625.639 373.304C624.856 372.043 624.465 370.221 624.465 367.838C624.465 365.469 624.856 363.654 625.639 362.393C626.422 361.133 627.554 360.502 629.035 360.502ZM625.953 367.838C625.953 369.529 626.107 370.852 626.415 371.808L631.068 362.601C630.579 361.95 629.901 361.624 629.035 361.624C628.071 361.624 627.316 362.137 626.771 363.162C626.226 364.174 625.953 365.732 625.953 367.838ZM629.035 374.052C630.013 374.052 630.775 373.546 631.32 372.535C631.865 371.51 632.137 369.944 632.137 367.838C632.137 366.051 631.963 364.665 631.613 363.682L626.96 372.971C627.463 373.692 628.154 374.052 629.035 374.052Z" fill="url(#paint2_linear_175_1901)" fill-opacity="0.6"/>
<path d="M630.293 397.637H633.374V398.738H625.387V397.637H628.951V385.957L625.555 387.973L624.968 387.038L629.161 384.461H630.293V397.637Z" fill="url(#paint3_linear_175_1901)" fill-opacity="0.6"/>
<path d="M630.293 421.388H633.374V422.489H625.387V421.388H628.951V409.708L625.555 411.724L624.968 410.789L629.161 408.212H630.293V421.388Z" fill="url(#paint4_linear_175_1901)" fill-opacity="0.6"/>
<path d="M629.035 431.755C630.53 431.755 631.662 432.386 632.431 433.646C633.213 434.893 633.605 436.708 633.605 439.091C633.605 441.474 633.213 443.296 632.431 444.557C631.662 445.818 630.53 446.448 629.035 446.448C627.554 446.448 626.422 445.818 625.639 444.557C624.856 443.296 624.465 441.474 624.465 439.091C624.465 436.722 624.856 434.907 625.639 433.646C626.422 432.386 627.554 431.755 629.035 431.755ZM625.953 439.091C625.953 440.782 626.107 442.105 626.415 443.061L631.068 433.854C630.579 433.203 629.901 432.878 629.035 432.878C628.071 432.878 627.316 433.39 626.771 434.415C626.226 435.427 625.953 436.985 625.953 439.091ZM629.035 445.305C630.013 445.305 630.775 444.8 631.32 443.788C631.865 442.763 632.137 441.197 632.137 439.091C632.137 437.304 631.963 435.919 631.613 434.935L626.96 444.225C627.463 444.945 628.154 445.305 629.035 445.305Z" fill="url(#paint5_linear_175_1901)" fill-opacity="0.6"/>
<path d="M630.293 468.89H633.374V469.992H625.387V468.89H628.951V457.21L625.555 459.226L624.968 458.291L629.161 455.714H630.293V468.89Z" fill="url(#paint6_linear_175_1901)" fill-opacity="0.6"/>
<path d="M629.035 479.257C630.53 479.257 631.662 479.888 632.431 481.149C633.213 482.396 633.605 484.211 633.605 486.594C633.605 488.977 633.213 490.798 632.431 492.059C631.662 493.32 630.53 493.95 629.035 493.95C627.554 493.95 626.422 493.32 625.639 492.059C624.856 490.798 624.465 488.977 624.465 486.594C624.465 484.224 624.856 482.409 625.639 481.149C626.422 479.888 627.554 479.257 629.035 479.257ZM625.953 486.594C625.953 488.284 626.107 489.607 626.415 490.563L631.068 481.356C630.579 480.705 629.901 480.38 629.035 480.38C628.071 480.38 627.316 480.892 626.771 481.918C626.226 482.929 625.953 484.488 625.953 486.594ZM629.035 492.807C630.013 492.807 630.775 492.302 631.32 491.29C631.865 490.265 632.137 488.699 632.137 486.594C632.137 484.806 631.963 483.421 631.613 482.437L626.96 491.727C627.463 492.447 628.154 492.807 629.035 492.807Z" fill="url(#paint7_linear_175_1901)" fill-opacity="0.6"/>
<path d="M629.035 503.008C630.53 503.008 631.662 503.639 632.431 504.9C633.213 506.147 633.605 507.962 633.605 510.345C633.605 512.728 633.213 514.549 632.431 515.81C631.662 517.071 630.53 517.701 629.035 517.701C627.554 517.701 626.422 517.071 625.639 515.81C624.856 514.549 624.465 512.728 624.465 510.345C624.465 507.975 624.856 506.16 625.639 504.9C626.422 503.639 627.554 503.008 629.035 503.008ZM625.953 510.345C625.953 512.035 626.107 513.358 626.415 514.314L631.068 505.107C630.579 504.456 629.901 504.131 629.035 504.131C628.071 504.131 627.316 504.643 626.771 505.669C626.226 506.68 625.953 508.239 625.953 510.345ZM629.035 516.558C630.013 516.558 630.775 516.053 631.32 515.041C631.865 514.016 632.137 512.451 632.137 510.345C632.137 508.557 631.963 507.172 631.613 506.188L626.96 515.478C627.463 516.198 628.154 516.558 629.035 516.558Z" fill="url(#paint8_linear_175_1901)" fill-opacity="0.6"/>
<path d="M630.293 540.143H633.374V541.245H625.387V540.143H628.951V528.464L625.555 530.48L624.968 529.544L629.161 526.967H630.293V540.143Z" fill="url(#paint9_linear_175_1901)" fill-opacity="0.6"/>
<path d="M629.035 550.511C630.53 550.511 631.662 551.141 632.431 552.402C633.213 553.649 633.605 555.464 633.605 557.847C633.605 560.23 633.213 562.052 632.431 563.312C631.662 564.573 630.53 565.204 629.035 565.204C627.554 565.204 626.422 564.573 625.639 563.312C624.856 562.052 624.465 560.23 624.465 557.847C624.465 555.478 624.856 553.663 625.639 552.402C626.422 551.141 627.554 550.511 629.035 550.511ZM625.953 557.847C625.953 559.537 626.107 560.86 626.415 561.816L631.068 552.61C630.579 551.958 629.901 551.633 629.035 551.633C628.071 551.633 627.316 552.145 626.771 553.171C626.226 554.182 625.953 555.741 625.953 557.847ZM629.035 564.061C630.013 564.061 630.775 563.555 631.32 562.543C631.865 561.518 632.137 559.953 632.137 557.847C632.137 556.059 631.963 554.674 631.613 553.69L626.96 562.98C627.463 563.7 628.154 564.061 629.035 564.061Z" fill="url(#paint10_linear_175_1901)" fill-opacity="0.6"/>
<path d="M630.293 587.645H633.374V588.747H625.387V587.645H628.951V575.966L625.555 577.982L624.968 577.046L629.161 574.469H630.293V587.645Z" fill="url(#paint11_linear_175_1901)" fill-opacity="0.6"/>
<path d="M630.293 611.396H633.374V612.498H625.387V611.396H628.951V599.717L625.555 601.733L624.968 600.798L629.161 598.221H630.293V611.396Z" fill="url(#paint12_linear_175_1901)" fill-opacity="0.6"/>
<path d="M667.965 360.502C669.46 360.502 670.592 361.133 671.361 362.393C672.144 363.64 672.535 365.455 672.535 367.838C672.535 370.221 672.144 372.043 671.361 373.304C670.592 374.565 669.46 375.195 667.965 375.195C666.484 375.195 665.352 374.565 664.569 373.304C663.787 372.043 663.395 370.221 663.395 367.838C663.395 365.469 663.787 363.654 664.569 362.393C665.352 361.133 666.484 360.502 667.965 360.502ZM664.884 367.838C664.884 369.529 665.037 370.852 665.345 371.808L669.998 362.601C669.509 361.95 668.832 361.624 667.965 361.624C667.001 361.624 666.246 362.137 665.701 363.162C665.156 364.174 664.884 365.732 664.884 367.838ZM667.965 374.052C668.943 374.052 669.705 373.546 670.25 372.535C670.795 371.51 671.068 369.944 671.068 367.838C671.068 366.051 670.893 364.665 670.543 363.682L665.89 372.971C666.393 373.692 667.085 374.052 667.965 374.052Z" fill="url(#paint13_linear_175_1901)" fill-opacity="0.6"/>
<path d="M669.223 397.637H672.304V398.738H664.318V397.637H667.881V385.957L664.485 387.973L663.898 387.038L668.091 384.461H669.223V397.637Z" fill="url(#paint14_linear_175_1901)" fill-opacity="0.6"/>
<path d="M667.965 408.004C669.46 408.004 670.592 408.635 671.361 409.895C672.144 411.142 672.535 412.957 672.535 415.34C672.535 417.723 672.144 419.545 671.361 420.806C670.592 422.067 669.46 422.697 667.965 422.697C666.484 422.697 665.352 422.067 664.569 420.806C663.787 419.545 663.395 417.723 663.395 415.34C663.395 412.971 663.787 411.156 664.569 409.895C665.352 408.635 666.484 408.004 667.965 408.004ZM664.884 415.34C664.884 417.031 665.037 418.354 665.345 419.31L669.998 410.103C669.509 409.452 668.832 409.126 667.965 409.126C667.001 409.126 666.246 409.639 665.701 410.664C665.156 411.676 664.884 413.234 664.884 415.34ZM667.965 421.554C668.943 421.554 669.705 421.049 670.25 420.037C670.795 419.012 671.068 417.446 671.068 415.34C671.068 413.553 670.893 412.168 670.543 411.184L665.89 420.474C666.393 421.194 667.085 421.554 667.965 421.554Z" fill="url(#paint15_linear_175_1901)" fill-opacity="0.6"/>
<path d="M667.965 431.755C669.46 431.755 670.592 432.386 671.361 433.646C672.144 434.893 672.535 436.708 672.535 439.091C672.535 441.474 672.144 443.296 671.361 444.557C670.592 445.818 669.46 446.448 667.965 446.448C666.484 446.448 665.352 445.818 664.569 444.557C663.787 443.296 663.395 441.474 663.395 439.091C663.395 436.722 663.787 434.907 664.569 433.646C665.352 432.386 666.484 431.755 667.965 431.755ZM664.884 439.091C664.884 440.782 665.037 442.105 665.345 443.061L669.998 433.854C669.509 433.203 668.832 432.878 667.965 432.878C667.001 432.878 666.246 433.39 665.701 434.415C665.156 435.427 664.884 436.985 664.884 439.091ZM667.965 445.305C668.943 445.305 669.705 444.8 670.25 443.788C670.795 442.763 671.068 441.197 671.068 439.091C671.068 437.304 670.893 435.919 670.543 434.935L665.89 444.225C666.393 444.945 667.085 445.305 667.965 445.305Z" fill="url(#paint16_linear_175_1901)" fill-opacity="0.6"/>
<path d="M669.223 468.89H672.304V469.992H664.318V468.89H667.881V457.21L664.485 459.226L663.898 458.291L668.091 455.714H669.223V468.89Z" fill="url(#paint17_linear_175_1901)" fill-opacity="0.6"/>
<path d="M667.965 479.257C669.46 479.257 670.592 479.888 671.361 481.149C672.144 482.396 672.535 484.211 672.535 486.594C672.535 488.977 672.144 490.798 671.361 492.059C670.592 493.32 669.46 493.95 667.965 493.95C666.484 493.95 665.352 493.32 664.569 492.059C663.787 490.798 663.395 488.977 663.395 486.594C663.395 484.224 663.787 482.409 664.569 481.149C665.352 479.888 666.484 479.257 667.965 479.257ZM664.884 486.594C664.884 488.284 665.037 489.607 665.345 490.563L669.998 481.356C669.509 480.705 668.832 480.38 667.965 480.38C667.001 480.38 666.246 480.892 665.701 481.918C665.156 482.929 664.884 484.488 664.884 486.594ZM667.965 492.807C668.943 492.807 669.705 492.302 670.25 491.29C670.795 490.265 671.068 488.699 671.068 486.594C671.068 484.806 670.893 483.421 670.543 482.437L665.89 491.727C666.393 492.447 667.085 492.807 667.965 492.807Z" fill="url(#paint18_linear_175_1901)" fill-opacity="0.6"/>
<path d="M669.223 516.392H672.304V517.494H664.318V516.392H667.881V504.713L664.485 506.728L663.898 505.793L668.091 503.216H669.223V516.392Z" fill="url(#paint19_linear_175_1901)" fill-opacity="0.6"/>
<path d="M667.965 526.76C669.46 526.76 670.592 527.39 671.361 528.651C672.144 529.898 672.535 531.713 672.535 534.096C672.535 536.479 672.144 538.301 671.361 539.561C670.592 540.822 669.46 541.453 667.965 541.453C666.484 541.453 665.352 540.822 664.569 539.561C663.787 538.301 663.395 536.479 663.395 534.096C663.395 531.726 663.787 529.911 664.569 528.651C665.352 527.39 666.484 526.76 667.965 526.76ZM664.884 534.096C664.884 535.786 665.037 537.109 665.345 538.065L669.998 528.859C669.509 528.207 668.832 527.882 667.965 527.882C667.001 527.882 666.246 528.394 665.701 529.42C665.156 530.431 664.884 531.99 664.884 534.096ZM667.965 540.31C668.943 540.31 669.705 539.804 670.25 538.792C670.795 537.767 671.068 536.202 671.068 534.096C671.068 532.308 670.893 530.923 670.543 529.939L665.89 539.229C666.393 539.949 667.085 540.31 667.965 540.31Z" fill="url(#paint20_linear_175_1901)" fill-opacity="0.6"/>
<path d="M667.965 550.511C669.46 550.511 670.592 551.141 671.361 552.402C672.144 553.649 672.535 555.464 672.535 557.847C672.535 560.23 672.144 562.052 671.361 563.312C670.592 564.573 669.46 565.204 667.965 565.204C666.484 565.204 665.352 564.573 664.569 563.312C663.787 562.052 663.395 560.23 663.395 557.847C663.395 555.478 663.787 553.663 664.569 552.402C665.352 551.141 666.484 550.511 667.965 550.511ZM664.884 557.847C664.884 559.537 665.037 560.86 665.345 561.816L669.998 552.61C669.509 551.958 668.832 551.633 667.965 551.633C667.001 551.633 666.246 552.145 665.701 553.171C665.156 554.182 664.884 555.741 664.884 557.847ZM667.965 564.061C668.943 564.061 669.705 563.555 670.25 562.543C670.795 561.518 671.068 559.953 671.068 557.847C671.068 556.059 670.893 554.674 670.543 553.69L665.89 562.98C666.393 563.7 667.085 564.061 667.965 564.061Z" fill="url(#paint21_linear_175_1901)" fill-opacity="0.6"/>
<path d="M669.223 587.645H672.304V588.747H664.318V587.645H667.881V575.966L664.485 577.982L663.898 577.046L668.091 574.469H669.223V587.645Z" fill="url(#paint22_linear_175_1901)" fill-opacity="0.6"/>
<path d="M667.965 598.013C669.46 598.013 670.592 598.643 671.361 599.904C672.144 601.151 672.535 602.966 672.535 605.349C672.535 607.732 672.144 609.554 671.361 610.815C670.592 612.075 669.46 612.706 667.965 612.706C666.484 612.706 665.352 612.075 664.569 610.815C663.787 609.554 663.395 607.732 663.395 605.349C663.395 602.98 663.787 601.165 664.569 599.904C665.352 598.643 666.484 598.013 667.965 598.013ZM664.884 605.349C664.884 607.039 665.037 608.362 665.345 609.318L669.998 600.112C669.509 599.461 668.832 599.135 667.965 599.135C667.001 599.135 666.246 599.648 665.701 600.673C665.156 601.684 664.884 603.243 664.884 605.349ZM667.965 611.563C668.943 611.563 669.705 611.057 670.25 610.046C670.795 609.02 671.068 607.455 671.068 605.349C671.068 603.562 670.893 602.176 670.543 601.192L665.89 610.482C666.393 611.202 667.085 611.563 667.965 611.563Z" fill="url(#paint23_linear_175_1901)" fill-opacity="0.6"/>
<path d="M669.223 635.148H672.304V636.249H664.318V635.148H667.881V623.468L664.485 625.484L663.898 624.549L668.091 621.972H669.223V635.148Z" fill="url(#paint24_linear_175_1901)" fill-opacity="0.6"/>
<path d="M669.223 658.899H672.304V660H664.318V658.899H667.881V647.219L664.485 649.235L663.898 648.3L668.091 645.723H669.223V658.899Z" fill="url(#paint25_linear_175_1901)" fill-opacity="0.6"/>
<path d="M609.57 384.253C611.065 384.253 612.197 384.884 612.966 386.144C613.748 387.391 614.14 389.206 614.14 391.589C614.14 393.972 613.748 395.794 612.966 397.055C612.197 398.316 611.065 398.946 609.57 398.946C608.088 398.946 606.956 398.316 606.174 397.055C605.391 395.794 605 393.972 605 391.589C605 389.22 605.391 387.405 606.174 386.144C606.956 384.884 608.088 384.253 609.57 384.253ZM606.488 391.589C606.488 393.28 606.642 394.603 606.95 395.559L611.603 386.352C611.114 385.701 610.436 385.375 609.57 385.375C608.606 385.375 607.851 385.888 607.306 386.913C606.761 387.925 606.488 389.483 606.488 391.589ZM609.57 397.803C610.548 397.803 611.31 397.297 611.855 396.286C612.4 395.261 612.672 393.695 612.672 391.589C612.672 389.802 612.498 388.417 612.148 387.433L607.495 396.722C607.998 397.443 608.689 397.803 609.57 397.803Z" fill="url(#paint26_linear_175_1901)" fill-opacity="0.6"/>
<path d="M609.57 408.004C611.065 408.004 612.197 408.635 612.966 409.895C613.748 411.142 614.14 412.957 614.14 415.34C614.14 417.723 613.748 419.545 612.966 420.806C612.197 422.067 611.065 422.697 609.57 422.697C608.088 422.697 606.956 422.067 606.174 420.806C605.391 419.545 605 417.723 605 415.34C605 412.971 605.391 411.156 606.174 409.895C606.956 408.635 608.088 408.004 609.57 408.004ZM606.488 415.34C606.488 417.031 606.642 418.354 606.95 419.31L611.603 410.103C611.114 409.452 610.436 409.126 609.57 409.126C608.606 409.126 607.851 409.639 607.306 410.664C606.761 411.676 606.488 413.234 606.488 415.34ZM609.57 421.554C610.548 421.554 611.31 421.049 611.855 420.037C612.4 419.012 612.672 417.446 612.672 415.34C612.672 413.553 612.498 412.168 612.148 411.184L607.495 420.474C607.998 421.194 608.689 421.554 609.57 421.554Z" fill="url(#paint27_linear_175_1901)" fill-opacity="0.6"/>
<path d="M610.828 445.139H613.909V446.24H605.922V445.139H609.486V433.459L606.09 435.475L605.503 434.54L609.696 431.963H610.828V445.139Z" fill="url(#paint28_linear_175_1901)" fill-opacity="0.6"/>
<path d="M609.57 455.506C611.065 455.506 612.197 456.137 612.966 457.398C613.748 458.644 614.14 460.459 614.14 462.842C614.14 465.225 613.748 467.047 612.966 468.308C612.197 469.569 611.065 470.199 609.57 470.199C608.088 470.199 606.956 469.569 606.174 468.308C605.391 467.047 605 465.225 605 462.842C605 460.473 605.391 458.658 606.174 457.398C606.956 456.137 608.088 455.506 609.57 455.506ZM606.488 462.842C606.488 464.533 606.642 465.856 606.95 466.812L611.603 457.605C611.114 456.954 610.436 456.629 609.57 456.629C608.606 456.629 607.851 457.141 607.306 458.166C606.761 459.178 606.488 460.737 606.488 462.842ZM609.57 469.056C610.548 469.056 611.31 468.551 611.855 467.539C612.4 466.514 612.672 464.948 612.672 462.842C612.672 461.055 612.498 459.67 612.148 458.686L607.495 467.976C607.998 468.696 608.689 469.056 609.57 469.056Z" fill="url(#paint29_linear_175_1901)" fill-opacity="0.6"/>
<path d="M610.828 492.641H613.909V493.743H605.922V492.641H609.486V480.962L606.09 482.977L605.503 482.042L609.696 479.465H610.828V492.641Z" fill="url(#paint30_linear_175_1901)" fill-opacity="0.6"/>
<path d="M610.828 516.392H613.909V517.494H605.922V516.392H609.486V504.713L606.09 506.728L605.503 505.793L609.696 503.216H610.828V516.392Z" fill="url(#paint31_linear_175_1901)" fill-opacity="0.6"/>
<path d="M649.758 350.135H652.839V351.236H644.853V350.135H648.416V338.455L645.02 340.471L644.433 339.536L648.626 336.959H649.758V350.135Z" fill="url(#paint32_linear_175_1901)" fill-opacity="0.6"/>
<path d="M648.5 360.502C649.995 360.502 651.127 361.133 651.896 362.393C652.679 363.64 653.07 365.455 653.07 367.838C653.07 370.221 652.679 372.043 651.896 373.304C651.127 374.565 649.995 375.195 648.5 375.195C647.019 375.195 645.887 374.565 645.104 373.304C644.321 372.043 643.93 370.221 643.93 367.838C643.93 365.469 644.321 363.654 645.104 362.393C645.887 361.133 647.019 360.502 648.5 360.502ZM645.419 367.838C645.419 369.529 645.572 370.852 645.88 371.808L650.533 362.601C650.044 361.95 649.366 361.624 648.5 361.624C647.536 361.624 646.781 362.137 646.236 363.162C645.691 364.174 645.419 365.732 645.419 367.838ZM648.5 374.052C649.478 374.052 650.24 373.546 650.785 372.535C651.33 371.51 651.602 369.944 651.602 367.838C651.602 366.051 651.428 364.665 651.078 363.682L646.425 372.971C646.928 373.692 647.62 374.052 648.5 374.052Z" fill="url(#paint33_linear_175_1901)" fill-opacity="0.6"/>
<path d="M649.758 397.637H652.839V398.738H644.853V397.637H648.416V385.957L645.02 387.973L644.433 387.038L648.626 384.461H649.758V397.637Z" fill="url(#paint34_linear_175_1901)" fill-opacity="0.6"/>
<path d="M649.758 421.388H652.839V422.489H644.853V421.388H648.416V409.708L645.02 411.724L644.433 410.789L648.626 408.212H649.758V421.388Z" fill="url(#paint35_linear_175_1901)" fill-opacity="0.6"/>
<path d="M648.5 431.755C649.995 431.755 651.127 432.386 651.896 433.646C652.679 434.893 653.07 436.708 653.07 439.091C653.07 441.474 652.679 443.296 651.896 444.557C651.127 445.818 649.995 446.448 648.5 446.448C647.019 446.448 645.887 445.818 645.104 444.557C644.321 443.296 643.93 441.474 643.93 439.091C643.93 436.722 644.321 434.907 645.104 433.646C645.887 432.386 647.019 431.755 648.5 431.755ZM645.419 439.091C645.419 440.782 645.572 442.105 645.88 443.061L650.533 433.854C650.044 433.203 649.366 432.878 648.5 432.878C647.536 432.878 646.781 433.39 646.236 434.415C645.691 435.427 645.419 436.985 645.419 439.091ZM648.5 445.305C649.478 445.305 650.24 444.8 650.785 443.788C651.33 442.763 651.602 441.197 651.602 439.091C651.602 437.304 651.428 435.919 651.078 434.935L646.425 444.225C646.928 444.945 647.62 445.305 648.5 445.305Z" fill="url(#paint36_linear_175_1901)" fill-opacity="0.6"/>
<path d="M649.758 468.89H652.839V469.992H644.853V468.89H648.416V457.21L645.02 459.226L644.433 458.291L648.626 455.714H649.758V468.89Z" fill="url(#paint37_linear_175_1901)" fill-opacity="0.6"/>
<path d="M649.758 492.641H652.839V493.743H644.853V492.641H648.416V480.962L645.02 482.977L644.433 482.042L648.626 479.465H649.758V492.641Z" fill="url(#paint38_linear_175_1901)" fill-opacity="0.6"/>
<path d="M648.5 503.008C649.995 503.008 651.127 503.639 651.896 504.9C652.679 506.147 653.07 507.962 653.07 510.345C653.07 512.728 652.679 514.549 651.896 515.81C651.127 517.071 649.995 517.701 648.5 517.701C647.019 517.701 645.887 517.071 645.104 515.81C644.321 514.549 643.93 512.728 643.93 510.345C643.93 507.975 644.321 506.16 645.104 504.9C645.887 503.639 647.019 503.008 648.5 503.008ZM645.419 510.345C645.419 512.035 645.572 513.358 645.88 514.314L650.533 505.107C650.044 504.456 649.366 504.131 648.5 504.131C647.536 504.131 646.781 504.643 646.236 505.669C645.691 506.68 645.419 508.239 645.419 510.345ZM648.5 516.558C649.478 516.558 650.24 516.053 650.785 515.041C651.33 514.016 651.602 512.451 651.602 510.345C651.602 508.557 651.428 507.172 651.078 506.188L646.425 515.478C646.928 516.198 647.62 516.558 648.5 516.558Z" fill="url(#paint39_linear_175_1901)" fill-opacity="0.6"/>
<path d="M649.758 540.143H652.839V541.245H644.853V540.143H648.416V528.464L645.02 530.48L644.433 529.544L648.626 526.967H649.758V540.143Z" fill="url(#paint40_linear_175_1901)" fill-opacity="0.6"/>
<path d="M648.5 550.511C649.995 550.511 651.127 551.141 651.896 552.402C652.679 553.649 653.07 555.464 653.07 557.847C653.07 560.23 652.679 562.052 651.896 563.312C651.127 564.573 649.995 565.204 648.5 565.204C647.019 565.204 645.887 564.573 645.104 563.312C644.321 562.052 643.93 560.23 643.93 557.847C643.93 555.478 644.321 553.663 645.104 552.402C645.887 551.141 647.019 550.511 648.5 550.511ZM645.419 557.847C645.419 559.537 645.572 560.86 645.88 561.816L650.533 552.61C650.044 551.958 649.366 551.633 648.5 551.633C647.536 551.633 646.781 552.145 646.236 553.171C645.691 554.182 645.419 555.741 645.419 557.847ZM648.5 564.061C649.478 564.061 650.24 563.555 650.785 562.543C651.33 561.518 651.602 559.953 651.602 557.847C651.602 556.059 651.428 554.674 651.078 553.69L646.425 562.98C646.928 563.7 647.62 564.061 648.5 564.061Z" fill="url(#paint41_linear_175_1901)" fill-opacity="0.6"/>
<path d="M687.43 336.751C688.926 336.751 690.057 337.381 690.826 338.642C691.609 339.889 692 341.704 692 344.087C692 346.47 691.609 348.292 690.826 349.553C690.057 350.814 688.926 351.444 687.43 351.444C685.949 351.444 684.817 350.814 684.034 349.553C683.252 348.292 682.86 346.47 682.86 344.087C682.86 341.718 683.252 339.903 684.034 338.642C684.817 337.381 685.949 336.751 687.43 336.751ZM684.349 344.087C684.349 345.777 684.502 347.101 684.81 348.057L689.464 338.85C688.974 338.199 688.297 337.873 687.43 337.873C686.466 337.873 685.711 338.386 685.166 339.411C684.621 340.423 684.349 341.981 684.349 344.087ZM687.43 350.301C688.408 350.301 689.17 349.795 689.715 348.784C690.26 347.759 690.533 346.193 690.533 344.087C690.533 342.3 690.358 340.914 690.009 339.931L685.355 349.22C685.858 349.941 686.55 350.301 687.43 350.301Z" fill="url(#paint42_linear_175_1901)" fill-opacity="0.6"/>
<path d="M688.688 373.886H691.769V374.987H683.783V373.886H687.346V362.206L683.95 364.222L683.363 363.287L687.556 360.71H688.688V373.886Z" fill="url(#paint43_linear_175_1901)" fill-opacity="0.6"/>
<path d="M688.688 397.637H691.769V398.738H683.783V397.637H687.346V385.957L683.95 387.973L683.363 387.038L687.556 384.461H688.688V397.637Z" fill="url(#paint44_linear_175_1901)" fill-opacity="0.6"/>
<path d="M687.43 408.004C688.926 408.004 690.057 408.635 690.826 409.895C691.609 411.142 692 412.957 692 415.34C692 417.723 691.609 419.545 690.826 420.806C690.057 422.067 688.926 422.697 687.43 422.697C685.949 422.697 684.817 422.067 684.034 420.806C683.252 419.545 682.86 417.723 682.86 415.34C682.86 412.971 683.252 411.156 684.034 409.895C684.817 408.635 685.949 408.004 687.43 408.004ZM684.349 415.34C684.349 417.031 684.502 418.354 684.81 419.31L689.464 410.103C688.974 409.452 688.297 409.126 687.43 409.126C686.466 409.126 685.711 409.639 685.166 410.664C684.621 411.676 684.349 413.234 684.349 415.34ZM687.43 421.554C688.408 421.554 689.17 421.049 689.715 420.037C690.26 419.012 690.533 417.446 690.533 415.34C690.533 413.553 690.358 412.168 690.009 411.184L685.355 420.474C685.858 421.194 686.55 421.554 687.43 421.554Z" fill="url(#paint45_linear_175_1901)" fill-opacity="0.6"/>
<path d="M687.43 431.755C688.926 431.755 690.057 432.386 690.826 433.646C691.609 434.893 692 436.708 692 439.091C692 441.474 691.609 443.296 690.826 444.557C690.057 445.818 688.926 446.448 687.43 446.448C685.949 446.448 684.817 445.818 684.034 444.557C683.252 443.296 682.86 441.474 682.86 439.091C682.86 436.722 683.252 434.907 684.034 433.646C684.817 432.386 685.949 431.755 687.43 431.755ZM684.349 439.091C684.349 440.782 684.502 442.105 684.81 443.061L689.464 433.854C688.974 433.203 688.297 432.878 687.43 432.878C686.466 432.878 685.711 433.39 685.166 434.415C684.621 435.427 684.349 436.985 684.349 439.091ZM687.43 445.305C688.408 445.305 689.17 444.8 689.715 443.788C690.26 442.763 690.533 441.197 690.533 439.091C690.533 437.304 690.358 435.919 690.009 434.935L685.355 444.225C685.858 444.945 686.55 445.305 687.43 445.305Z" fill="url(#paint46_linear_175_1901)" fill-opacity="0.6"/>
</g>
<defs>
<filter id="filter0_f_175_1901" x="37.81" y="-673.19" width="2141.38" height="1500.38" filterUnits="userSpaceOnUse" color-interpolation-filters="sRGB">
<feFlood flood-opacity="0" result="BackgroundImageFix"/>
<feBlend mode="normal" in="SourceGraphic" in2="BackgroundImageFix" result="shape"/>
<feGaussianBlur stdDeviation="200.095" result="effect1_foregroundBlur_175_1901"/>
</filter>
<linearGradient id="paint0_linear_175_1901" x1="648.5" y1="313" x2="648.5" y2="624.381" gradientUnits="userSpaceOnUse">
<stop stop-color="#F7DD43"/>
<stop offset="1" stop-color="#F7DD43" stop-opacity="0"/>
</linearGradient>
<linearGradient id="paint1_linear_175_1901" x1="648.5" y1="313" x2="648.5" y2="624.381" gradientUnits="userSpaceOnUse">
<stop stop-color="#F7DD43"/>
<stop offset="1" stop-color="#F7DD43" stop-opacity="0"/>
</linearGradient>
<linearGradient id="paint2_linear_175_1901" x1="648.5" y1="313" x2="648.5" y2="624.381" gradientUnits="userSpaceOnUse">
<stop stop-color="#F7DD43"/>
<stop offset="1" stop-color="#F7DD43" stop-opacity="0"/>
</linearGradient>
<linearGradient id="paint3_linear_175_1901" x1="648.5" y1="313" x2="648.5" y2="624.381" gradientUnits="userSpaceOnUse">
<stop stop-color="#F7DD43"/>
<stop offset="1" stop-color="#F7DD43" stop-opacity="0"/>
</linearGradient>
<linearGradient id="paint4_linear_175_1901" x1="648.5" y1="313" x2="648.5" y2="624.381" gradientUnits="userSpaceOnUse">
<stop stop-color="#F7DD43"/>
<stop offset="1" stop-color="#F7DD43" stop-opacity="0"/>
</linearGradient>
<linearGradient id="paint5_linear_175_1901" x1="648.5" y1="313" x2="648.5" y2="624.381" gradientUnits="userSpaceOnUse">
<stop stop-color="#F7DD43"/>
<stop offset="1" stop-color="#F7DD43" stop-opacity="0"/>
</linearGradient>
<linearGradient id="paint6_linear_175_1901" x1="648.5" y1="313" x2="648.5" y2="624.381" gradientUnits="userSpaceOnUse">
<stop stop-color="#F7DD43"/>
<stop offset="1" stop-color="#F7DD43" stop-opacity="0"/>
</linearGradient>
<linearGradient id="paint7_linear_175_1901" x1="648.5" y1="313" x2="648.5" y2="624.381" gradientUnits="userSpaceOnUse">
<stop stop-color="#F7DD43"/>
<stop offset="1" stop-color="#F7DD43" stop-opacity="0"/>
</linearGradient>
<linearGradient id="paint8_linear_175_1901" x1="648.5" y1="313" x2="648.5" y2="624.381" gradientUnits="userSpaceOnUse">
<stop stop-color="#F7DD43"/>
<stop offset="1" stop-color="#F7DD43" stop-opacity="0"/>
</linearGradient>
<linearGradient id="paint9_linear_175_1901" x1="648.5" y1="313" x2="648.5" y2="624.381" gradientUnits="userSpaceOnUse">
<stop stop-color="#F7DD43"/>
<stop offset="1" stop-color="#F7DD43" stop-opacity="0"/>
</linearGradient>
<linearGradient id="paint10_linear_175_1901" x1="648.5" y1="313" x2="648.5" y2="624.381" gradientUnits="userSpaceOnUse">
<stop stop-color="#F7DD43"/>
<stop offset="1" stop-color="#F7DD43" stop-opacity="0"/>
</linearGradient>
<linearGradient id="paint11_linear_175_1901" x1="648.5" y1="313" x2="648.5" y2="624.381" gradientUnits="userSpaceOnUse">
<stop stop-color="#F7DD43"/>
<stop offset="1" stop-color="#F7DD43" stop-opacity="0"/>
</linearGradient>
<linearGradient id="paint12_linear_175_1901" x1="648.5" y1="313" x2="648.5" y2="624.381" gradientUnits="userSpaceOnUse">
<stop stop-color="#F7DD43"/>
<stop offset="1" stop-color="#F7DD43" stop-opacity="0"/>
</linearGradient>
<linearGradient id="paint13_linear_175_1901" x1="648.5" y1="313" x2="648.5" y2="624.381" gradientUnits="userSpaceOnUse">
<stop stop-color="#F7DD43"/>
<stop offset="1" stop-color="#F7DD43" stop-opacity="0"/>
</linearGradient>
<linearGradient id="paint14_linear_175_1901" x1="648.5" y1="313" x2="648.5" y2="624.381" gradientUnits="userSpaceOnUse">
<stop stop-color="#F7DD43"/>
<stop offset="1" stop-color="#F7DD43" stop-opacity="0"/>
</linearGradient>
<linearGradient id="paint15_linear_175_1901" x1="648.5" y1="313" x2="648.5" y2="624.381" gradientUnits="userSpaceOnUse">
<stop stop-color="#F7DD43"/>
<stop offset="1" stop-color="#F7DD43" stop-opacity="0"/>
</linearGradient>
<linearGradient id="paint16_linear_175_1901" x1="648.5" y1="313" x2="648.5" y2="624.381" gradientUnits="userSpaceOnUse">
<stop stop-color="#F7DD43"/>
<stop offset="1" stop-color="#F7DD43" stop-opacity="0"/>
</linearGradient>
<linearGradient id="paint17_linear_175_1901" x1="648.5" y1="313" x2="648.5" y2="624.381" gradientUnits="userSpaceOnUse">
<stop stop-color="#F7DD43"/>
<stop offset="1" stop-color="#F7DD43" stop-opacity="0"/>
</linearGradient>
<linearGradient id="paint18_linear_175_1901" x1="648.5" y1="313" x2="648.5" y2="624.381" gradientUnits="userSpaceOnUse">
<stop stop-color="#F7DD43"/>
<stop offset="1" stop-color="#F7DD43" stop-opacity="0"/>
</linearGradient>
<linearGradient id="paint19_linear_175_1901" x1="648.5" y1="313" x2="648.5" y2="624.381" gradientUnits="userSpaceOnUse">
<stop stop-color="#F7DD43"/>
<stop offset="1" stop-color="#F7DD43" stop-opacity="0"/>
</linearGradient>
<linearGradient id="paint20_linear_175_1901" x1="648.5" y1="313" x2="648.5" y2="624.381" gradientUnits="userSpaceOnUse">
<stop stop-color="#F7DD43"/>
<stop offset="1" stop-color="#F7DD43" stop-opacity="0"/>
</linearGradient>
<linearGradient id="paint21_linear_175_1901" x1="648.5" y1="313" x2="648.5" y2="624.381" gradientUnits="userSpaceOnUse">
<stop stop-color="#F7DD43"/>
<stop offset="1" stop-color="#F7DD43" stop-opacity="0"/>
</linearGradient>
<linearGradient id="paint22_linear_175_1901" x1="648.5" y1="313" x2="648.5" y2="624.381" gradientUnits="userSpaceOnUse">
<stop stop-color="#F7DD43"/>
<stop offset="1" stop-color="#F7DD43" stop-opacity="0"/>
</linearGradient>
<linearGradient id="paint23_linear_175_1901" x1="648.5" y1="313" x2="648.5" y2="624.381" gradientUnits="userSpaceOnUse">
<stop stop-color="#F7DD43"/>
<stop offset="1" stop-color="#F7DD43" stop-opacity="0"/>
</linearGradient>
<linearGradient id="paint24_linear_175_1901" x1="648.5" y1="313" x2="648.5" y2="624.381" gradientUnits="userSpaceOnUse">
<stop stop-color="#F7DD43"/>
<stop offset="1" stop-color="#F7DD43" stop-opacity="0"/>
</linearGradient>
<linearGradient id="paint25_linear_175_1901" x1="648.5" y1="313" x2="648.5" y2="624.381" gradientUnits="userSpaceOnUse">
<stop stop-color="#F7DD43"/>
<stop offset="1" stop-color="#F7DD43" stop-opacity="0"/>
</linearGradient>
<linearGradient id="paint26_linear_175_1901" x1="648.5" y1="313" x2="648.5" y2="624.381" gradientUnits="userSpaceOnUse">
<stop stop-color="#F7DD43"/>
<stop offset="1" stop-color="#F7DD43" stop-opacity="0"/>
</linearGradient>
<linearGradient id="paint27_linear_175_1901" x1="648.5" y1="313" x2="648.5" y2="624.381" gradientUnits="userSpaceOnUse">
<stop stop-color="#F7DD43"/>
<stop offset="1" stop-color="#F7DD43" stop-opacity="0"/>
</linearGradient>
<linearGradient id="paint28_linear_175_1901" x1="648.5" y1="313" x2="648.5" y2="624.381" gradientUnits="userSpaceOnUse">
<stop stop-color="#F7DD43"/>
<stop offset="1" stop-color="#F7DD43" stop-opacity="0"/>
</linearGradient>
<linearGradient id="paint29_linear_175_1901" x1="648.5" y1="313" x2="648.5" y2="624.381" gradientUnits="userSpaceOnUse">
<stop stop-color="#F7DD43"/>
<stop offset="1" stop-color="#F7DD43" stop-opacity="0"/>
</linearGradient>
<linearGradient id="paint30_linear_175_1901" x1="648.5" y1="313" x2="648.5" y2="624.381" gradientUnits="userSpaceOnUse">
<stop stop-color="#F7DD43"/>
<stop offset="1" stop-color="#F7DD43" stop-opacity="0"/>
</linearGradient>
<linearGradient id="paint31_linear_175_1901" x1="648.5" y1="313" x2="648.5" y2="624.381" gradientUnits="userSpaceOnUse">
<stop stop-color="#F7DD43"/>
<stop offset="1" stop-color="#F7DD43" stop-opacity="0"/>
</linearGradient>
<linearGradient id="paint32_linear_175_1901" x1="648.5" y1="313" x2="648.5" y2="624.381" gradientUnits="userSpaceOnUse">
<stop stop-color="#F7DD43"/>
<stop offset="1" stop-color="#F7DD43" stop-opacity="0"/>
</linearGradient>
<linearGradient id="paint33_linear_175_1901" x1="648.5" y1="313" x2="648.5" y2="624.381" gradientUnits="userSpaceOnUse">
<stop stop-color="#F7DD43"/>
<stop offset="1" stop-color="#F7DD43" stop-opacity="0"/>
</linearGradient>
<linearGradient id="paint34_linear_175_1901" x1="648.5" y1="313" x2="648.5" y2="624.381" gradientUnits="userSpaceOnUse">
<stop stop-color="#F7DD43"/>
<stop offset="1" stop-color="#F7DD43" stop-opacity="0"/>
</linearGradient>
<linearGradient id="paint35_linear_175_1901" x1="648.5" y1="313" x2="648.5" y2="624.381" gradientUnits="userSpaceOnUse">
<stop stop-color="#F7DD43"/>
<stop offset="1" stop-color="#F7DD43" stop-opacity="0"/>
</linearGradient>
<linearGradient id="paint36_linear_175_1901" x1="648.5" y1="313" x2="648.5" y2="624.381" gradientUnits="userSpaceOnUse">
<stop stop-color="#F7DD43"/>
<stop offset="1" stop-color="#F7DD43" stop-opacity="0"/>
</linearGradient>
<linearGradient id="paint37_linear_175_1901" x1="648.5" y1="313" x2="648.5" y2="624.381" gradientUnits="userSpaceOnUse">
<stop stop-color="#F7DD43"/>
<stop offset="1" stop-color="#F7DD43" stop-opacity="0"/>
</linearGradient>
<linearGradient id="paint38_linear_175_1901" x1="648.5" y1="313" x2="648.5" y2="624.381" gradientUnits="userSpaceOnUse">
<stop stop-color="#F7DD43"/>
<stop offset="1" stop-color="#F7DD43" stop-opacity="0"/>
</linearGradient>
<linearGradient id="paint39_linear_175_1901" x1="648.5" y1="313" x2="648.5" y2="624.381" gradientUnits="userSpaceOnUse">
<stop stop-color="#F7DD43"/>
<stop offset="1" stop-color="#F7DD43" stop-opacity="0"/>
</linearGradient>
<linearGradient id="paint40_linear_175_1901" x1="648.5" y1="313" x2="648.5" y2="624.381" gradientUnits="userSpaceOnUse">
<stop stop-color="#F7DD43"/>
<stop offset="1" stop-color="#F7DD43" stop-opacity="0"/>
</linearGradient>
<linearGradient id="paint41_linear_175_1901" x1="648.5" y1="313" x2="648.5" y2="624.381" gradientUnits="userSpaceOnUse">
<stop stop-color="#F7DD43"/>
<stop offset="1" stop-color="#F7DD43" stop-opacity="0"/>
</linearGradient>
<linearGradient id="paint42_linear_175_1901" x1="648.5" y1="313" x2="648.5" y2="624.381" gradientUnits="userSpaceOnUse">
<stop stop-color="#F7DD43"/>
<stop offset="1" stop-color="#F7DD43" stop-opacity="0"/>
</linearGradient>
<linearGradient id="paint43_linear_175_1901" x1="648.5" y1="313" x2="648.5" y2="624.381" gradientUnits="userSpaceOnUse">
<stop stop-color="#F7DD43"/>
<stop offset="1" stop-color="#F7DD43" stop-opacity="0"/>
</linearGradient>
<linearGradient id="paint44_linear_175_1901" x1="648.5" y1="313" x2="648.5" y2="624.381" gradientUnits="userSpaceOnUse">
<stop stop-color="#F7DD43"/>
<stop offset="1" stop-color="#F7DD43" stop-opacity="0"/>
</linearGradient>
<linearGradient id="paint45_linear_175_1901" x1="648.5" y1="313" x2="648.5" y2="624.381" gradientUnits="userSpaceOnUse">
<stop stop-color="#F7DD43"/>
<stop offset="1" stop-color="#F7DD43" stop-opacity="0"/>
</linearGradient>
<linearGradient id="paint46_linear_175_1901" x1="648.5" y1="313" x2="648.5" y2="624.381" gradientUnits="userSpaceOnUse">
<stop stop-color="#F7DD43"/>
<stop offset="1" stop-color="#F7DD43" stop-opacity="0"/>
</linearGradient>
<clipPath id="clip0_175_1901">
<rect width="1024" height="753" fill="white"/>
</clipPath>
</defs>
</svg>

